<svg width="24" height="24" viewBox="0 0 24 24" fill="none" xmlns="http://www.w3.org/2000/svg">
<path d="M20.2159 3.78305C19.0821 2.64906 17.6223 2.01588 16.1054 2.00014C14.54 1.98487 13.0154 2.63706 11.8115 3.8393C10.7188 4.9306 9.91314 6.41896 9.60111 7.9227C9.25912 9.57002 8.47169 11.0475 7.32384 12.1955L7.274 12.2453C7.16271 12.3566 7.10009 12.5075 7.10009 12.6649C7.10009 12.8224 7.16259 12.9733 7.27392 13.0847L7.53677 13.3475L5.28274 15.6017C4.93552 15.4068 4.53739 15.3066 4.13407 15.3192C3.52009 15.3383 2.95735 15.6033 2.54946 16.0652C1.81747 16.8944 1.81684 18.1455 2.54809 18.9752C2.94134 19.4216 3.4838 19.6862 4.07556 19.7203C4.18188 19.7264 4.27337 19.8179 4.27946 19.9243C4.31353 20.516 4.5781 21.0585 5.02442 21.4518C5.439 21.8172 5.95872 21.9999 6.47853 21.9999C6.99892 21.9999 7.51943 21.8167 7.93423 21.4505C8.39622 21.0425 8.66119 20.4797 8.68025 19.8657C8.69275 19.4622 8.59267 19.0643 8.39771 18.7169L10.6517 16.4627L10.9148 16.7258C11.0306 16.8417 11.1826 16.8996 11.3344 16.8996C11.4862 16.8996 11.638 16.8417 11.7539 16.726L11.804 16.6759C12.9513 15.5285 14.4293 14.7409 16.0782 14.3981C17.5795 14.086 19.0658 13.2817 20.1558 12.1915C21.3605 10.9868 22.0153 9.46142 21.9998 7.89634C21.9847 6.37923 21.3512 4.91845 20.2159 3.78305ZM7.19685 18.2392C6.96509 18.4709 6.96509 18.8467 7.19685 19.0785C7.3972 19.2789 7.50271 19.5454 7.49392 19.8288C7.48509 20.1119 7.36247 20.3718 7.14864 20.5606C6.77321 20.8921 6.18474 20.8924 5.809 20.5613C5.60239 20.3792 5.48001 20.1288 5.46431 19.8561C5.42337 19.1441 4.8556 18.5763 4.14364 18.5353C3.87091 18.5196 3.62048 18.3971 3.43845 18.1906C3.10735 17.8148 3.10766 17.2263 3.43915 16.8508C3.6279 16.637 3.88778 16.5144 4.17087 16.5056C4.18185 16.5052 4.19278 16.505 4.20368 16.505C4.47485 16.505 4.72853 16.61 4.92114 16.8026C5.15282 17.0343 5.52857 17.0344 5.76036 16.8026L8.37599 14.1868L9.81251 15.6234L7.19685 18.2392ZM19.3166 11.352C18.3995 12.2692 17.0986 12.9735 15.8367 13.2358C14.1372 13.5891 12.5947 14.3604 11.3448 15.4772L8.52236 12.6546C9.63966 11.404 10.4107 9.86199 10.7631 8.1639C11.0255 6.89997 11.7309 5.59725 12.6502 4.67917C14.6169 2.71504 17.4458 2.69117 19.3766 4.62233C21.3088 6.55467 21.2835 9.38497 19.3166 11.352Z" fill="#FB6D3A"/>
<ellipse cx="15.4091" cy="4.95452" rx="0.681819" ry="0.681818" fill="#FB6D3A"/>
<ellipse cx="17.2273" cy="6.31805" rx="0.681819" ry="0.681818" fill="#FB6D3A"/>
<ellipse cx="14.5001" cy="7.22723" rx="0.681818" ry="0.681818" fill="#FB6D3A"/>
</svg>
