<svg width="24" height="24" viewBox="0 0 24 24" fill="none" xmlns="http://www.w3.org/2000/svg">
<path d="M11.9999 2.14685C13.2543 2.14685 14.3394 2.57053 15.0321 3.19275C15.7203 3.81113 16.0067 4.60417 15.7567 5.40466L15.6552 5.73083L15.9823 5.82458C16.5915 5.99972 17.0378 6.56214 17.038 7.22498C17.038 7.85284 16.6382 8.39105 16.078 8.59509L15.8436 8.68005L15.8593 8.93005C15.9374 10.1471 16.3264 11.6478 16.8212 13.1801C17.0694 13.9488 17.3468 14.7323 17.6288 15.4994L18.4647 17.7211C19.2221 19.7139 17.7477 21.8529 15.6151 21.8529H8.38464C6.31914 21.8529 4.8699 19.8455 5.47058 17.9076L5.53503 17.7211C6.05684 16.349 6.66824 14.758 7.16785 13.2142C7.66583 11.6754 8.06173 10.1562 8.1405 8.93005L8.15613 8.68005L7.92175 8.59509C7.36153 8.39101 6.96179 7.85279 6.96179 7.22498C6.96191 6.56214 7.40827 5.99968 8.01746 5.82458L8.3446 5.73083L8.24304 5.40466C7.99316 4.60431 8.27952 3.81116 8.96765 3.19275C9.66022 2.57051 10.7453 2.14686 11.9999 2.14685ZM11.8495 13.765L6.70203 16.3754L6.58582 16.434L6.53992 16.5551L6.02722 17.9076C5.39937 19.5594 6.61588 21.3255 8.38464 21.3256H15.6151C17.327 21.3256 18.5248 19.6696 18.0262 18.0629L17.9725 17.9076C17.7932 17.4358 17.6274 16.9999 17.4598 16.5551L17.4139 16.434L17.2987 16.3754L12.1503 13.765L11.9999 13.6879L11.8495 13.765ZM8.66492 8.99353C8.5527 10.6591 7.91404 12.7654 7.14539 14.9144L6.86316 15.7025L7.60925 15.3246L11.8807 13.1576C11.9367 13.1292 12.0005 13.122 12.0604 13.1361L12.119 13.1576L16.3905 15.3246L17.1366 15.7025L16.8544 14.9144C16.0857 12.7655 15.448 10.6591 15.3358 8.99353L15.3143 8.68201H8.68542L8.66492 8.99353ZM8.41882 6.29529C7.90573 6.2953 7.48928 6.71191 7.48914 7.22498C7.48914 7.73816 7.90564 8.15562 8.41882 8.15564H15.5809C16.0941 8.15564 16.5116 7.73817 16.5116 7.22498C16.5115 6.7119 16.094 6.29529 15.5809 6.29529H8.41882ZM12.9305 2.7572L12.6415 2.71814C12.2143 2.66016 11.7853 2.66014 11.3583 2.71814L11.0702 2.7572V3.64392C11.0702 3.78935 10.9519 3.90744 10.8065 3.90759C10.661 3.90759 10.5428 3.78944 10.5428 3.64392V2.86853L10.0663 3.09509C9.57877 3.32762 9.13535 3.67262 8.8866 4.10388C8.62661 4.55465 8.58907 5.08926 8.91296 5.61072L9.01062 5.76794H14.9891L15.0868 5.61072C15.396 5.11292 15.3786 4.58906 15.1307 4.13513C14.9224 3.75371 14.5601 3.43373 14.1249 3.19373L13.9335 3.09509L13.4569 2.86853V3.64392C13.4569 3.78944 13.3388 3.90759 13.1932 3.90759C13.0479 3.90739 12.9305 3.78932 12.9305 3.64392V2.7572Z" fill="#FB6D3A" stroke="#FB6D3A" stroke-width="0.666667"/>
<path d="M9.61271 18.565C9.94234 18.565 10.2096 18.2978 10.2096 17.9682C10.2096 17.6386 9.94234 17.3713 9.61271 17.3713C9.28309 17.3713 9.01587 17.6386 9.01587 17.9682C9.01587 18.2978 9.28309 18.565 9.61271 18.565Z" fill="#FB6D3A"/>
<path d="M11.4032 16.7746C11.7329 16.7746 12.0001 16.5074 12.0001 16.1778C12.0001 15.8481 11.7329 15.5809 11.4032 15.5809C11.0736 15.5809 10.8064 15.8481 10.8064 16.1778C10.8064 16.5074 11.0736 16.7746 11.4032 16.7746Z" fill="#FB6D3A"/>
<path d="M12.597 19.162C12.9266 19.162 13.1938 18.8947 13.1938 18.5651C13.1938 18.2355 12.9266 17.9683 12.597 17.9683C12.2673 17.9683 12.0001 18.2355 12.0001 18.5651C12.0001 18.8947 12.2673 19.162 12.597 19.162Z" fill="#FB6D3A"/>
</svg>
